HIERARCHY
ROOT Hips
{
	OFFSET 0.000000 0.000000 0.000000
	CHANNELS 6 Xposition Yposition Zposition Zrotation Yrotation Xrotation 
	JOINT LHipJoint
	{
		OFFSET 0.000000 0.000000 0.000000
		CHANNELS 3 Zrotation Yrotation Xrotation
		JOINT LeftUpLeg
		{
			OFFSET 1.363060 -1.794630 0.839290
			CHANNELS 3 Zrotation Yrotation Xrotation
			JOINT LeftLeg
			{
				OFFSET 2.448110 -6.726130 0.000000
				CHANNELS 3 Zrotation Yrotation Xrotation
				JOINT LeftFoot
				{
					OFFSET 2.562200 -7.039590 0.000000
					CHANNELS 3 Zrotation Yrotation Xrotation
					JOINT LeftToeBase
					{
						OFFSET 0.157640 -0.433110 2.322550
						CHANNELS 3 Zrotation Yrotation Xrotation
						End Site
						{
							OFFSET 0.000000 0.000000 0.000000
						}
					}
				}
			}
		}
	}
	JOINT RHipJoint
	{
		OFFSET 0.000000 0.000000 0.000000
		CHANNELS 3 Zrotation Yrotation Xrotation
		JOINT RightUpLeg
		{
			OFFSET -1.305520 -1.794630 0.839290
			CHANNELS 3 Zrotation Yrotation Xrotation
			JOINT RightLeg
			{
				OFFSET -2.542530 -6.985550 0.000000
				CHANNELS 3 Zrotation Yrotation Xrotation
				JOINT RightFoot
				{
					OFFSET -2.568260 -7.056230 0.000000
					CHANNELS 3 Zrotation Yrotation Xrotation
					JOINT RightToeBase
					{
						OFFSET -0.164730 -0.452590 2.363150
						CHANNELS 3 Zrotation Yrotation Xrotation
						End Site
						{
							OFFSET 0.000000 0.000000 0.000000
						}
					}
				}
			}
		}
	}
	JOINT LowerBack
	{
		OFFSET 0.000000 0.000000 0.000000
		CHANNELS 3 Zrotation Yrotation Xrotation
		JOINT Spine
		{
			OFFSET 0.028270 2.035590 -0.193380
			CHANNELS 3 Zrotation Yrotation Xrotation
			JOINT Spine1
			{
				OFFSET 0.056720 2.048850 -0.042750
				CHANNELS 3 Zrotation Yrotation Xrotation
				JOINT Neck
				{
					OFFSET 0.000000 0.000000 0.000000
					CHANNELS 3 Zrotation Yrotation Xrotation
					JOINT Neck1
					{
						OFFSET -0.054170 1.746240 0.172020
						CHANNELS 3 Zrotation Yrotation Xrotation
						JOINT Head
						{
							OFFSET 0.104070 1.761360 -0.123970
							CHANNELS 3 Zrotation Yrotation Xrotation
							End Site
							{
								OFFSET 0.000000 0.000000 0.000000
							}
						}
					}
				}
				JOINT LeftShoulder
				{
					OFFSET 0.000000 0.000000 0.000000
					CHANNELS 3 Zrotation Yrotation Xrotation
					JOINT LeftArm
					{
						OFFSET 3.362410 1.200890 -0.311210
						CHANNELS 3 Zrotation Yrotation Xrotation
						JOINT LeftForeArm
						{
							OFFSET 4.983000 -0.000000 -0.000000
							CHANNELS 3 Zrotation Yrotation Xrotation
							JOINT LeftHand
							{
								OFFSET 3.483560 -0.000000 -0.000000
								CHANNELS 3 Zrotation Yrotation Xrotation
								JOINT LeftFingerBase
								{
									OFFSET 0.000000 0.000000 0.000000
									CHANNELS 3 Zrotation Yrotation Xrotation
									JOINT LeftHandIndex1
									{
										OFFSET 0.715260 -0.000000 -0.000000
										CHANNELS 3 Zrotation Yrotation Xrotation
										End Site
										{
											OFFSET 0.000000 0.000000 0.000000
										}
									}
								}
								JOINT LThumb
								{
									OFFSET 0.000000 0.000000 0.000000
									CHANNELS 3 Zrotation Yrotation Xrotation
									End Site
									{
										OFFSET 0.000000 0.000000 0.000000
									}
								}
							}
						}
					}
				}
				JOINT RightShoulder
				{
					OFFSET 0.000000 0.000000 0.000000
					CHANNELS 3 Zrotation Yrotation Xrotation
					JOINT RightArm
					{
						OFFSET -3.136600 1.374050 -0.404650
						CHANNELS 3 Zrotation Yrotation Xrotation
						JOINT RightForeArm
						{
							OFFSET -5.241900 -0.000000 -0.000000
							CHANNELS 3 Zrotation Yrotation Xrotation
							JOINT RightHand
							{
								OFFSET -3.444170 -0.000000 -0.000000
								CHANNELS 3 Zrotation Yrotation Xrotation
								JOINT RightFingerBase
								{
									OFFSET 0.000000 0.000000 0.000000
									CHANNELS 3 Zrotation Yrotation Xrotation
									JOINT RightHandIndex1
									{
										OFFSET -0.622530 -0.000000 -0.000000
										CHANNELS 3 Zrotation Yrotation Xrotation
										End Site
										{
											OFFSET 0.000000 0.000000 0.000000
										}
									}
								}
								JOINT RThumb
								{
									OFFSET 0.000000 0.000000 0.000000
									CHANNELS 3 Zrotation Yrotation Xrotation
									End Site
									{
										OFFSET 0.000000 0.000000 0.000000
									}
								}
							}
						}
					}
				}
			}
		}
	}
}
MOTION
Frames: 11
Frame Time: 0.008333
-4.594910 16.655149 1.150217 -102.313723 87.844661 -86.280545 -8.690103 1.757914 3.663507 -23.085630 -0.978484 -41.856480 -3.317266 0.189359 22.313588 0.958066 3.054889 -8.165629 -179.873599 0.000000 -0.250400 10.823052 -5.223593 -0.949876 8.186587 -17.328620 -8.117189 1.314042 -2.759981 36.941049 0.805720 18.177819 15.942883 6.628500 0.000000 -82.733101 -2.435187 -0.606921 -4.007723 -1.117084 -0.536524 -3.395611 -5.369747 -0.483897 1.247050 10.598642 -9.434225 -6.691321 -2.430034 -0.197070 0.263499 0.000000 0.000000 0.000000 5.127503 16.123397 0.415644 -59.959845 10.004502 -4.635961 -179.136824 -73.889926 179.963933 6.904036 -0.469469 -0.048606 -0.194737 0.364512 -0.000000 0.000000 0.000000 0.000000 0.000000 0.000000 0.000000 7.250608 -2.352348 -1.101377 58.236530 26.754618 23.030845 179.131905 76.872701 -179.978547 2.315087 7.590937 0.169957 -0.038410 -0.610780 -0.000000 0.000000 0.000000 0.000000 0.000000 0.000000 0.000000 
-4.432336 16.624293 1.155572 -100.010405 87.863089 -84.007393 -8.609412 1.773262 3.798216 -22.703211 -1.908648 -42.344837 -3.099543 0.402552 24.841451 1.138209 3.715381 -9.200517 -179.973700 -0.000000 -3.253900 11.082231 -5.129754 -0.985896 7.427665 -17.726762 -9.212149 1.088867 -2.872224 39.470861 0.709468 19.930839 17.792467 7.919700 0.000000 -82.649800 -2.741853 -0.582144 -4.138962 -1.210582 -0.493404 -3.427937 -5.513992 -0.432901 1.215745 10.958019 -9.397883 -6.599867 -2.400496 -0.195845 0.285660 0.000000 0.000000 0.000000 4.595871 16.401226 0.392891 -59.790368 9.180197 -4.970191 -179.146229 -74.358525 179.961220 7.370341 -0.512591 -0.055031 -0.207997 0.365925 -0.000000 0.000000 0.000000 0.000000 0.000000 0.000000 0.000000 7.289145 -2.300336 -1.255883 59.495011 26.151185 22.594471 179.167125 77.235805 -179.978645 2.287533 7.780120 0.172038 -0.038630 -0.615900 -0.000000 0.000000 0.000000 0.000000 0.000000 0.000000 0.000000 
-4.276934 16.602352 1.158051 -94.289409 87.861845 -78.355336 -8.497904 1.825813 3.867283 -22.423920 -2.588252 -42.651654 -2.918930 0.588710 27.054030 1.310598 4.338335 -10.217281 179.905900 0.000000 -5.056100 11.355194 -4.964949 -1.011122 6.686848 -17.874948 -10.290950 0.842092 -2.957137 41.993366 0.586396 21.285791 19.679209 9.173600 0.000001 -81.907100 -2.974279 -0.504002 -4.199981 -1.293462 -0.401632 -3.452484 -5.667125 -0.332359 1.165859 11.229724 -9.347544 -6.499277 -2.371301 -0.194630 0.309165 0.000000 0.000000 0.000000 3.958968 16.705834 0.369952 -59.643621 8.157202 -5.204215 -179.165089 -75.083372 179.958472 7.850684 -0.504822 -0.058167 -0.221435 0.365321 -0.000000 0.000000 0.000000 0.000000 0.000000 0.000000 0.000000 7.251851 -2.225448 -1.429228 60.946194 25.461202 22.115609 179.221860 77.748268 -179.979324 2.207158 7.899360 0.168622 -0.038530 -0.618057 -0.000000 0.000000 0.000000 0.000000 0.000000 0.000000 0.000000 
-4.128872 16.589693 1.157017 -84.343875 87.807771 -68.523815 -8.379014 1.931831 3.880122 -22.236695 -3.010631 -42.744530 -2.784530 0.749916 28.852292 1.477829 4.935623 -11.221749 179.766900 -0.000000 -5.915100 11.608195 -4.718288 -1.033538 5.980870 -17.788799 -11.325859 0.574072 -3.006642 44.476652 0.446854 22.113860 21.536013 10.262000 -0.000001 -80.585300 -3.145749 -0.361913 -4.191415 -1.366704 -0.250043 -3.471161 -5.825116 -0.172414 1.094298 11.413348 -9.274049 -6.386613 -2.344203 -0.193627 0.335351 0.000000 0.000000 0.000000 3.239288 17.022822 0.344666 -59.557183 6.979371 -5.350789 -179.196022 -76.050211 179.955636 8.350440 -0.430272 -0.056223 -0.234587 0.362377 0.000000 0.000000 0.000000 0.000000 0.000000 0.000000 0.000000 7.150813 -2.112990 -1.615269 62.541787 24.689414 21.578755 179.295830 78.402157 -179.980846 2.039247 7.922672 0.156510 -0.037449 -0.616934 -0.000000 0.000000 0.000000 0.000000 0.000000 0.000000 0.000000 
-3.987884 16.586220 1.152012 -70.498668 87.685189 -54.839643 -8.314927 2.079879 3.850045 -22.139338 -3.196181 -42.600587 -2.698529 0.889511 30.173158 1.640336 5.520004 -12.201565 179.612600 0.000000 -6.048001 11.771609 -4.398840 -1.065046 5.300911 -17.506854 -12.299667 0.290975 -3.021104 46.892922 0.298708 22.313802 23.295571 11.050600 -0.000000 -78.863700 -3.327458 -0.160764 -4.117422 -1.438962 -0.038037 -3.485412 -5.980082 0.044911 0.999727 11.515081 -9.169792 -6.259817 -2.320667 -0.193006 0.365140 0.000000 0.000000 0.000000 2.468652 17.332780 0.316190 -59.567249 5.698608 -5.421043 -179.240537 -77.231293 179.952657 8.874727 -0.278134 -0.047304 -0.247042 0.356990 0.000000 0.000000 0.000000 0.000000 0.000000 0.000000 0.000000 7.005065 -1.956756 -1.806958 64.225989 23.848557 20.972248 179.386984 79.184137 -179.983451 1.748991 7.824909 0.133104 -0.034716 -0.612375 0.000000 0.000000 0.000000 0.000000 0.000000 0.000000 0.000000 
-3.853360 16.591417 1.142502 -55.989763 87.527080 -40.532936 -8.372567 2.194743 3.781544 -22.123166 -3.199938 -42.192026 -2.648194 0.992532 31.011653 1.790707 6.081556 -13.122115 179.448299 -0.000000 -5.633500 11.784255 -4.077197 -1.113417 4.650204 -17.101220 -13.214469 0.020784 -3.031223 49.196874 0.144781 21.812855 24.890170 11.419500 0.000000 -76.987000 -3.582365 0.053521 -3.981042 -1.515226 0.194543 -3.493486 -6.120687 0.278132 0.882741 11.542705 -9.027564 -6.117371 -2.301871 -0.192912 0.398980 0.000000 0.000000 0.000000 1.680522 17.596240 0.289653 -59.705713 4.370080 -5.421979 -179.298251 -78.589145 179.949486 9.426338 -0.043064 -0.029909 -0.258617 0.349390 0.000000 0.000000 0.000000 0.000000 0.000000 0.000000 0.000000 6.832008 -1.770806 -2.000363 65.939077 22.949259 20.286716 179.491655 80.070172 -179.987372 1.305859 7.586123 0.097189 -0.029968 -0.604232 -0.000000 0.000000 0.000000 0.000000 0.000000 0.000000 0.000000 
-3.724490 16.604440 1.128387 -44.534210 87.399304 -29.316500 -8.517962 2.215435 3.669346 -22.156492 -3.087639 -41.491627 -2.615803 1.034133 31.406783 1.920494 6.597036 -13.941450 179.282099 -0.000000 -4.838200 11.697747 -3.825255 -1.177088 4.051895 -16.658319 -14.072224 -0.209306 -3.073152 51.334897 -0.018289 20.590617 26.251910 11.290000 0.000000 -75.193800 -3.856824 0.230274 -3.780196 -1.585004 0.394561 -3.490223 -6.240593 0.476831 0.750265 11.509425 -8.850945 -5.962508 -2.289298 -0.193439 0.435807 0.000000 0.000000 0.000000 0.914249 17.781410 0.269485 -60.002316 3.036056 -5.352040 -179.368295 -80.084935 179.946081 10.004077 0.270602 -0.003033 -0.269113 0.340236 0.000000 0.000000 0.000000 0.000000 0.000000 0.000000 0.000000 6.654719 -1.582892 -2.191231 67.615816 22.016883 19.525989 179.603955 81.031658 -179.992758 0.685358 7.192300 0.049753 -0.022887 -0.592323 0.000000 0.000000 0.000000 0.000000 0.000000 0.000000 0.000000 
-3.600168 16.624207 1.109566 -37.711526 87.314084 -22.766215 -8.663473 2.161909 3.516849 -22.174690 -2.889830 -40.528869 -2.592419 1.012555 31.420841 2.026184 7.043197 -14.634572 179.123400 0.000000 -3.835900 11.610580 -3.643913 -1.247378 3.554587 -16.212702 -14.860162 -0.400134 -3.147794 53.270748 -0.194506 18.674335 27.311796 10.631900 0.000000 -73.633600 -4.023056 0.365353 -3.522412 -1.630022 0.547947 -3.474780 -6.340735 0.630811 0.609250 11.428147 -8.644374 -5.798513 -2.284289 -0.194659 0.474978 0.000000 0.000000 0.000000 0.196307 17.881363 0.253126 -60.475346 1.747518 -5.214603 -179.448537 -81.664777 179.942470 10.601398 0.650230 0.033727 -0.278182 0.330186 0.000000 0.000000 0.000000 0.000000 0.000000 0.000000 0.000000 6.489300 -1.397270 -2.372317 69.198127 21.081406 18.707538 179.715969 82.036451 -179.999567 -0.120162 6.641644 -0.005108 -0.013180 -0.576857 -0.000000 0.000000 0.000000 0.000000 0.000000 0.000000 0.000000 
-3.479145 16.649488 1.085999 -35.155955 87.246059 -20.507662 -8.769798 2.082251 3.341255 -22.129496 -2.625639 -39.370837 -2.575976 0.945858 31.115858 2.107738 7.410039 -15.188598 178.982200 0.000000 -2.812300 11.562013 -3.497638 -1.318587 3.182770 -15.763723 -15.569713 -0.565618 -3.235317 54.993021 -0.384115 16.150418 27.994446 9.476700 0.000000 -72.326700 -4.025064 0.478491 -3.228638 -1.643263 0.668600 -3.450981 -6.422866 0.754783 0.465471 11.313665 -8.413349 -5.628159 -2.286947 -0.196556 0.516214 0.000000 0.000000 0.000000 -0.454445 17.905994 0.234588 -61.126688 0.554497 -5.013100 -179.535008 -83.265740 179.938763 11.205220 1.074321 0.079077 -0.285498 0.319847 0.000000 0.000000 0.000000 0.000000 0.000000 0.000000 0.000000 6.346519 -1.207006 -2.535856 70.643827 20.171247 17.860463 179.820324 83.052252 179.992499 -1.096069 5.947407 -0.060691 -0.000752 -0.558496 0.000000 0.000000 0.000000 0.000000 0.000000 0.000000 0.000000 
-3.360237 16.679113 1.058117 -35.727973 87.185370 -21.389231 -8.845330 2.000249 3.161412 -22.008830 -2.328629 -38.077707 -2.563844 0.851260 30.551999 2.165428 7.697537 -15.594132 178.866500 -0.000000 -1.943500 11.540999 -3.365620 -1.389953 2.923453 -15.314794 -16.203906 -0.713027 -3.323279 56.499668 -0.583318 13.171046 28.227579 7.925900 0.000000 -71.180700 -3.889070 0.578010 -2.921348 -1.629228 0.765625 -3.422165 -6.487583 0.856708 0.326334 11.184757 -8.171577 -5.456471 -2.296644 -0.199011 0.558344 0.000000 0.000000 0.000000 -1.019977 17.871058 0.209509 -61.943638 -0.515386 -4.741340 -179.622888 -84.830482 179.935128 11.794790 1.514707 0.130619 -0.290903 0.309864 0.000000 0.000000 0.000000 0.000000 0.000000 0.000000 0.000000 6.240858 -1.019567 -2.676495 71.925811 19.316484 17.026386 179.911742 84.050141 179.983836 -2.207843 5.141846 -0.108688 0.014189 -0.538186 0.000000 0.000000 0.000000 0.000000 0.000000 0.000000 0.000000 
-3.242337 16.711943 1.026422 -38.709370 87.134783 -24.673689 -8.906323 1.919130 2.993139 -21.809444 -2.039501 -36.709611 -2.551058 0.739997 29.801953 2.199280 7.904928 -15.850946 178.781600 -0.000000 -1.360800 11.530426 -3.246825 -1.458043 2.765255 -14.869968 -16.780340 -0.842297 -3.409018 57.788157 -0.784898 9.937774 27.963858 6.136500 -0.000001 -70.059200 -3.647889 0.660536 -2.624650 -1.592917 0.837388 -3.391803 -6.535856 0.933908 0.197263 11.056976 -7.931463 -5.286868 -2.312350 -0.201907 0.600569 0.000000 0.000000 0.000000 -1.490330 17.784117 0.176545 -62.900080 -1.440459 -4.391876 -179.707212 -86.303017 179.931761 12.343183 1.940875 0.184559 -0.294403 0.300848 0.000000 0.000000 0.000000 0.000000 0.000000 0.000000 0.000000 6.178909 -0.846488 -2.792507 73.032343 18.531090 16.244882 179.987240 85.000913 179.974944 -3.397825 4.276132 -0.141996 0.030853 -0.517050 -0.000000 0.000000 0.000000 0.000000 0.000000 0.000000 0.000000 
